<svg style="display: none;" aria-hidden="true" xmlns="http://www.w3.org/2000/svg" xmlns:xlink="http://www.w3.org/1999/xlink">
<symbol viewBox="0 0 13 12" fill="none" id="arrow-45deg" xmlns="http://www.w3.org/2000/svg">
	<path d="M1.42969 11L11.4297 1M11.4297 1H1.42969M11.4297 1V11" stroke-width="2" stroke-linecap="round" stroke-linejoin="round"/>
</symbol>
<symbol viewBox="0 0 14 12" fill="none" id="check-arrow" xmlns="http://www.w3.org/2000/svg">
	<path d="M12.7782 1.66675L4.83377 10.3334L1.22266 6.39402" stroke-width="2" stroke-linecap="round" stroke-linejoin="round"/>
</symbol>
<symbol viewBox="0 0 22 22" fill="none" id="close-cross" xmlns="http://www.w3.org/2000/svg">
	<path d="M21 1L1 21M1 1L21 21" stroke-width="2" stroke-linecap="round" stroke-linejoin="round"/>
</symbol>
<symbol viewBox="0 0 28 28" id="swipe-area-pointer" xmlns="http://www.w3.org/2000/svg">
	<path d="M27.9178 16.9001C27.8856 16.1812 27.6735 15.4641 27.4683 14.7704L27.4434 14.6862C27.344 14.3475 27.169 14.0362 26.9318 13.7762C26.6944 13.5161 26.4011 13.3141 26.0743 13.1857C25.0614 12.7567 24.1105 12.8958 23.2461 13.5987C22.8475 12.683 22.1963 12.0975 21.3091 11.8581C20.2691 11.5776 19.4241 11.8011 18.7956 12.5232C17.7296 11.05 16.9415 10.8955 15.2565 11.8329C15.2378 11.5524 15.2198 11.2733 15.2029 10.9957C15.1591 10.3002 15.1153 9.58099 15.0456 8.87865C14.9081 7.48334 14.7516 5.98525 14.5389 4.46746C14.4158 3.65625 14.0925 2.88903 13.5985 2.23617C13.0148 1.44012 12.2085 1.26505 11.3261 1.74283C11.0611 1.88092 10.828 2.07355 10.6418 2.30825C10.4556 2.54294 10.3204 2.81443 10.2453 3.10507C10.1326 3.49636 10.0637 3.89907 10.0398 4.30576C10.0276 4.57071 10.0149 4.83562 10.0019 5.10048C9.93824 6.41926 9.87232 7.78284 9.87348 9.1248C9.87466 10.7563 9.91216 12.355 9.95187 14.0477C9.96732 14.7048 9.98188 15.3672 9.9956 16.0347C9.98495 16.025 9.97461 16.0156 9.96454 16.0062C9.8872 15.9329 9.80618 15.8638 9.72185 15.7989C8.21026 14.6826 6.60252 14.2944 4.94297 14.6444C4.59999 14.7106 4.27853 14.8608 4.00694 15.0817C3.73537 15.3027 3.52205 15.5875 3.38588 15.9112C3.24786 16.2493 3.1947 16.6165 3.23111 16.9803C3.26753 17.344 3.39237 17.6931 3.59464 17.9968C3.85285 18.3744 4.16232 18.714 4.51398 19.0054C5.66655 19.994 6.61764 21.1983 7.31461 22.5515C8.16429 24.211 9.12406 25.959 10.4257 28.2157C10.7355 28.7114 11.1316 29.1471 11.595 29.5016C12.5245 30.238 13.5681 30.8158 14.6839 31.2116C15.713 31.6012 16.8036 31.8006 17.9033 31.8004C19.1978 31.7852 20.4797 31.5437 21.692 31.087C22.5898 30.7491 23.4215 30.2548 24.149 29.6269C25.4667 28.5292 26.3849 27.029 26.9563 25.0406C27.7173 22.3984 28.0421 19.6482 27.9178 16.9001ZM11.3704 17.8272C11.3413 16.075 11.3026 14.2248 11.2577 12.3282C11.2485 11.938 11.2313 11.5416 11.2139 11.1583C11.1837 10.456 11.1522 9.72992 11.1684 9.01802C11.2033 7.48482 11.2927 5.92664 11.3792 4.41973L11.4045 3.98028C11.4386 3.3806 11.5724 2.8031 12.308 2.63024C12.7785 2.93999 13.0697 3.44993 13.1982 4.18709C13.3912 5.2955 13.527 6.41324 13.6052 7.53579C13.7063 9.00186 13.7824 10.4948 13.8561 11.9384C13.8937 12.6763 13.9325 13.4142 13.9728 14.152C13.9983 14.612 14.1843 14.8777 14.5407 14.9645C14.9007 15.0526 15.1973 14.859 15.4216 14.3899L15.5222 14.1786C15.7301 13.741 15.9453 13.2885 16.1895 12.8646C16.3368 12.6088 16.6037 12.3224 17.0431 12.4109C17.2274 12.4464 17.3954 12.541 17.5217 12.6806C17.6481 12.8201 17.7262 12.9971 17.7443 13.1851C17.8182 13.6495 17.8549 14.1192 17.8541 14.5895C17.8565 15.2325 17.9396 15.5476 18.4053 15.5988C18.8619 15.6488 19.02 15.3785 19.2002 14.7521C19.3249 14.2742 19.4988 13.8108 19.7191 13.3693C20.0012 12.8429 20.337 12.7252 20.9584 12.9357C21.5713 13.1434 21.9382 13.5536 22.0463 14.1548C22.1014 14.5071 22.134 14.8625 22.1439 15.2191C22.1483 15.3104 22.1532 15.4014 22.1585 15.4922C22.1779 15.836 22.2563 16.2037 22.6912 16.3238C23.1258 16.4439 23.3624 16.1704 23.552 15.8567C23.6067 15.7664 23.6601 15.6749 23.7136 15.5833C23.8655 15.3061 24.0398 15.0422 24.2348 14.7939C24.5425 14.4247 24.8955 14.2446 25.2283 14.2869C25.5612 14.3292 25.8586 14.5921 26.0656 15.027C26.591 16.1298 26.7817 17.4043 26.6337 18.8155C26.4843 20.2419 26.267 21.7554 25.9505 23.5784C25.7006 24.9065 25.1536 26.1601 24.351 27.2439C23.5689 28.3357 22.4206 29.1057 20.84 29.5976C17.9586 30.4936 15.2667 30.0124 12.6101 28.1253C12.3292 27.9324 12.0839 27.6917 11.8852 27.4139C11.4442 26.7784 11.038 26.1189 10.6686 25.4387C10.065 24.3064 9.47425 23.1329 8.91274 21.9499C8.02264 20.0764 6.88558 18.6012 5.43573 17.4409C5.19 17.2434 4.98299 17.0015 4.82532 16.7275C4.78099 16.6579 4.75197 16.5796 4.74012 16.4978C4.72825 16.416 4.73392 16.3327 4.75664 16.2533C4.79206 16.1633 4.84577 16.0817 4.91432 16.0137C4.98288 15.9459 5.06476 15.8932 5.15474 15.8589C5.4406 15.7298 5.75059 15.6636 6.06394 15.6648C6.23419 15.6654 6.40401 15.6824 6.57104 15.7156C7.92809 15.978 8.78431 16.4776 9.3483 17.3352C9.51289 17.6167 9.63893 17.9193 9.72301 18.2347C9.75 18.3202 9.77719 18.4056 9.80551 18.4896C9.9167 18.8187 10.0902 19.1555 10.5328 19.1586H10.5392C10.9146 19.1586 11.1872 18.9236 11.2874 18.5132C11.3443 18.2891 11.3723 18.0585 11.3709 17.8272H11.3704Z" stroke="none"/>
	<path d="M7.5 3.5H1M1 3.5L3.5 1M1 3.5L3.5 6" fill="none"/>
	<path d="M17 3.5L23.5 3.5M23.5 3.5L21 6M23.5 3.5L21 1" fill="none"/>
</symbol>
<symbol viewBox="0 0 15 28" id="arrow-left" xmlns="http://www.w3.org/2000/svg">
	<path d="M14 27L1 14L14 1" fill="none" stroke-width="2" stroke-linecap="round" stroke-linejoin="round"/>
</symbol>
<symbol viewBox="0 0 15 28" id="arrow-right" xmlns="http://www.w3.org/2000/svg">
	<path d="M1 27L14 14L1 1" fill="none" stroke-width="2" stroke-linecap="round" stroke-linejoin="round"/>
</symbol>

<symbol viewBox="0 0 56 55" stroke="none" id="checked" xmlns="http://www.w3.org/2000/svg">
	<path fill-rule="evenodd" clip-rule="evenodd" d="M5.37109 27.5C5.37109 24.5453 5.95307 21.6194 7.0838 18.8896C8.21453 16.1598 9.87187 13.6794 11.9612 11.5901C14.0505 9.50078 16.5309 7.84344 19.2607 6.71271C21.9905 5.58198 24.9164 5 27.8711 5C30.8258 5 33.7516 5.58198 36.4815 6.71271C39.2113 7.84344 41.6917 9.50078 43.781 11.5901C45.8703 13.6794 47.5277 16.1598 48.6584 18.8896C49.7891 21.6194 50.3711 24.5453 50.3711 27.5C50.3711 33.4674 48.0006 39.1903 43.781 43.4099C39.5614 47.6295 33.8385 50 27.8711 50C21.9037 50 16.1808 47.6295 11.9612 43.4099C7.74162 39.1903 5.37109 33.4674 5.37109 27.5ZM27.8711 0C12.6836 0 0.371094 12.3125 0.371094 27.5C0.371094 42.6875 12.6836 55 27.8711 55C43.0586 55 55.3711 42.6875 55.3711 27.5C55.3711 12.3125 43.0586 0 27.8711 0ZM39.8711 19C40.0681 18.7374 40.2114 18.4385 40.2929 18.1205C40.3744 17.8024 40.3924 17.4715 40.346 17.1464C40.2995 16.8214 40.1895 16.5088 40.0223 16.2263C39.855 15.9438 39.6337 15.697 39.3711 15.5C39.1085 15.303 38.8096 15.1597 38.4915 15.0782C38.1735 14.9967 37.8425 14.9787 37.5175 15.0251C37.1925 15.0716 36.8799 15.1815 36.5974 15.3488C36.3149 15.5161 36.0681 15.7374 35.8711 16L22.6011 33.695L17.1386 28.2325C16.6671 27.7771 16.0356 27.5251 15.3801 27.5308C14.7246 27.5365 14.0976 27.7994 13.634 28.263C13.1705 28.7265 12.9076 29.3535 12.9019 30.009C12.8962 30.6645 13.1482 31.296 13.6036 31.7675L21.1036 39.2675C21.3568 39.5207 21.6616 39.7166 21.9971 39.8419C22.3326 39.9671 22.6911 40.0188 23.0484 39.9934C23.4056 39.968 23.7532 39.8662 24.0677 39.6948C24.3822 39.5234 24.6562 39.2865 24.8711 39L39.8711 19Z"/>
</symbol>
<symbol viewBox="0 0 46 55" id="file" xmlns="http://www.w3.org/2000/svg">
	<path stroke="none" fill-rule="evenodd" clip-rule="evenodd" d="M15.9454 0.7325C16.4141 0.263627 17.0499 0.000141594 17.7129 0H37.7129C39.702 0 41.6097 0.790176 43.0162 2.1967C44.4227 3.60322 45.2129 5.51088 45.2129 7.5V47.5C45.2129 49.4891 44.4227 51.3968 43.0162 52.8033C41.6097 54.2098 39.702 55 37.7129 55H7.71289C5.72377 55 3.81611 54.2098 2.40959 52.8033C1.00307 51.3968 0.212891 49.4891 0.212891 47.5V17.5C0.213032 16.837 0.476517 16.2012 0.945391 15.7325L15.9454 0.7325ZM37.7129 5H20.2129V17.5C20.2129 18.163 19.9495 18.7989 19.4807 19.2678C19.0118 19.7366 18.3759 20 17.7129 20H5.21289V47.5C5.21289 48.163 5.47628 48.7989 5.94512 49.2678C6.41397 49.7366 7.04985 50 7.71289 50H37.7129C38.3759 50 39.0118 49.7366 39.4807 49.2678C39.9495 48.7989 40.2129 48.163 40.2129 47.5V7.5C40.2129 6.83696 39.9495 6.20107 39.4807 5.73223C39.0118 5.26339 38.3759 5 37.7129 5ZM8.74789 15H15.2129V8.535L8.74789 15ZM10.2129 30C10.2129 29.337 10.4763 28.7011 10.9451 28.2322C11.414 27.7634 12.0498 27.5 12.7129 27.5H32.7129C33.3759 27.5 34.0118 27.7634 34.4807 28.2322C34.9495 28.7011 35.2129 29.337 35.2129 30C35.2129 30.663 34.9495 31.2989 34.4807 31.7678C34.0118 32.2366 33.3759 32.5 32.7129 32.5H12.7129C12.0498 32.5 11.414 32.2366 10.9451 31.7678C10.4763 31.2989 10.2129 30.663 10.2129 30ZM10.2129 40C10.2129 39.337 10.4763 38.7011 10.9451 38.2322C11.414 37.7634 12.0498 37.5 12.7129 37.5H32.7129C33.3759 37.5 34.0118 37.7634 34.4807 38.2322C34.9495 38.7011 35.2129 39.337 35.2129 40C35.2129 40.663 34.9495 41.2989 34.4807 41.7678C34.0118 42.2366 33.3759 42.5 32.7129 42.5H12.7129C12.0498 42.5 11.414 42.2366 10.9451 41.7678C10.4763 41.2989 10.2129 40.663 10.2129 40Z"/>
</symbol>
<symbol viewBox="0 0 53 55" id="settings" xmlns="http://www.w3.org/2000/svg">
	<path stroke="none" fill-rule="evenodd" clip-rule="evenodd" d="M21.0887 0C20.3712 0 19.683 0.289731 19.1756 0.805456C18.6682 1.32118 18.3831 2.02065 18.3831 2.75V7.1005C16.5172 7.86869 14.766 8.89796 13.1802 10.1585L9.47078 7.9805C8.84936 7.61584 8.11087 7.51702 7.41776 7.70578C6.72465 7.89453 6.1337 8.3554 5.7749 8.987L0.363645 18.513C0.00487299 19.1446 -0.0923526 19.8952 0.0933558 20.5997C0.279064 21.3042 0.732496 21.9048 1.35391 22.2695L5.06061 24.4447C4.78313 26.4718 4.78313 28.5282 5.06061 30.5553L1.35391 32.7277C1.04586 32.9083 0.775851 33.1489 0.559332 33.4356C0.342813 33.7223 0.184027 34.0496 0.0920553 34.3987C8.41315e-05 34.7479 -0.0232685 35.112 0.0233333 35.4703C0.0699351 35.8287 0.185577 36.1741 0.363645 36.487L5.7749 46.013C6.1337 46.6446 6.72465 47.1055 7.41776 47.2942C8.11087 47.483 8.84936 47.3842 9.47078 47.0195L13.1802 44.8415C14.7522 46.0928 16.5027 47.124 18.3831 47.8995V52.25C18.3831 52.9793 18.6682 53.6788 19.1756 54.1945C19.683 54.7103 20.3712 55 21.0887 55H31.9112C32.6288 55 33.317 54.7103 33.8244 54.1945C34.3318 53.6788 34.6169 52.9793 34.6169 52.25V47.8995C36.4827 47.1312 38.234 46.102 39.8198 44.8415L43.5292 47.0195C44.1506 47.3842 44.8891 47.483 45.5822 47.2942C46.2753 47.1055 46.8663 46.6446 47.2251 46.013L52.6363 36.487C52.9951 35.8554 53.0923 35.1048 52.9066 34.4003C52.7209 33.6958 52.2675 33.0952 51.6461 32.7305L47.9394 30.5553C48.2168 28.5282 48.2168 26.4718 47.9394 24.4447L51.6461 22.2722C51.9541 22.0917 52.2241 21.8511 52.4407 21.5644C52.6572 21.2777 52.816 20.9504 52.9079 20.6013C52.9999 20.2521 53.0233 19.888 52.9767 19.5297C52.9301 19.1713 52.8144 18.8259 52.6363 18.513L47.2251 8.987C46.8663 8.3554 46.2753 7.89453 45.5822 7.70578C44.8891 7.51702 44.1506 7.61584 43.5292 7.9805L39.8198 10.1585C38.234 8.89799 36.4828 7.86872 34.6169 7.1005V2.75C34.6169 2.02065 34.3318 1.32118 33.8244 0.805456C33.317 0.289731 32.6288 0 31.9112 0H21.0887ZM23.7944 9.0475V5.5H29.2056V9.0475C29.2059 9.63982 29.3944 10.2162 29.743 10.6909C30.0915 11.1656 30.5816 11.5132 31.1401 11.682C33.5762 12.4214 35.8071 13.7327 37.6526 15.51C38.076 15.9177 38.6176 16.1755 39.1968 16.2449C39.7761 16.3142 40.3618 16.1915 40.8669 15.895L43.8918 14.1185L46.5974 18.8815L43.5752 20.6552C43.0709 20.9512 42.674 21.4045 42.4434 21.948C42.2128 22.4915 42.161 23.0961 42.2954 23.672C42.884 26.1889 42.884 28.8111 42.2954 31.328C42.161 31.9039 42.2128 32.5085 42.4434 33.052C42.674 33.5955 43.0709 34.0488 43.5752 34.3447L46.5974 36.1185L43.8918 40.8815L40.8642 39.105C40.3594 38.8091 39.7742 38.6868 39.1956 38.7562C38.6169 38.8255 38.0758 39.0829 37.6526 39.49C35.8072 41.2674 33.5763 42.5788 31.1401 43.318C30.5816 43.4868 30.0915 43.8344 29.743 44.3091C29.3944 44.7838 29.2059 45.3602 29.2056 45.9525V49.5H23.7944V45.9525C23.7941 45.3602 23.6056 44.7838 23.257 44.3091C22.9085 43.8344 22.4184 43.4868 21.8598 43.318C19.4238 42.5787 17.1929 41.2674 15.3474 39.49C14.924 39.0823 14.3824 38.8245 13.8031 38.7551C13.2239 38.6858 12.6381 38.8085 12.1331 39.105L9.10823 40.8815L6.4026 36.1185L9.42479 34.3447C9.9291 34.0488 10.326 33.5955 10.5566 33.052C10.7871 32.5085 10.839 31.9039 10.7046 31.328C10.116 28.8111 10.116 26.1889 10.7046 23.672C10.839 23.0961 10.7871 22.4915 10.5566 21.948C10.326 21.4045 9.9291 20.9512 9.42479 20.6552L6.4026 18.8815L9.10823 14.1185L12.1331 15.895C12.6381 16.1915 13.2239 16.3142 13.8031 16.2449C14.3824 16.1755 14.924 15.9177 15.3474 15.51C17.1929 13.7327 19.4238 12.4214 21.8598 11.682C22.4184 11.5132 22.9085 11.1656 23.257 10.6909C23.6056 10.2162 23.7941 9.63982 23.7944 9.0475ZM21.0887 27.5C21.0887 26.0413 21.6589 24.6424 22.6737 23.6109C23.6885 22.5795 25.0648 22 26.5 22C27.9352 22 29.3115 22.5795 30.3263 23.6109C31.3411 24.6424 31.9112 26.0413 31.9112 27.5C31.9112 28.9587 31.3411 30.3576 30.3263 31.3891C29.3115 32.4205 27.9352 33 26.5 33C25.0648 33 23.6885 32.4205 22.6737 31.3891C21.6589 30.3576 21.0887 28.9587 21.0887 27.5ZM26.5 16.5C23.6297 16.5 20.8769 17.6589 18.8473 19.7218C16.8177 21.7847 15.6775 24.5826 15.6775 27.5C15.6775 30.4174 16.8177 33.2153 18.8473 35.2782C20.8769 37.3411 23.6297 38.5 26.5 38.5C29.3703 38.5 32.1231 37.3411 34.1527 35.2782C36.1823 33.2153 37.3225 30.4174 37.3225 27.5C37.3225 24.5826 36.1823 21.7847 34.1527 19.7218C32.1231 17.6589 29.3703 16.5 26.5 16.5Z"/>
</symbol>
<symbol viewBox="0 0 55 55" id="message" xmlns="http://www.w3.org/2000/svg">
	<path stroke="none" fill-rule="evenodd" clip-rule="evenodd" d="M12.363 40.6504H7.17391C5.27127 40.6504 3.44656 39.8947 2.10119 38.5493C0.755821 37.204 0 35.3794 0 33.4768V7.17361C0 5.27105 0.755821 3.44641 2.10119 2.1011C3.44656 0.755789 5.27127 0 7.17391 0H40.6522C42.5548 0 44.3795 0.755789 45.7249 2.1011C47.0703 3.44641 47.8261 5.27105 47.8261 7.17361V14.3472C49.7287 14.3472 51.5534 15.103 52.8988 16.4483C54.2442 17.7936 55 19.6183 55 21.5208V38.2592C55 40.1618 54.2442 41.9864 52.8988 43.3317C51.5534 44.6771 49.7287 45.4328 47.8261 45.4328H42.9335L35.2789 54.1823C35.0545 54.4391 34.7777 54.6449 34.4671 54.786C34.1565 54.927 33.8194 55 33.4783 55C33.1372 55 32.8 54.927 32.4894 54.786C32.1789 54.6449 31.9021 54.4391 31.6776 54.1823L24.0254 45.4328H19.1304C17.6463 45.4333 16.1986 44.9736 14.9867 44.1171C13.7747 43.2606 12.8581 42.0495 12.363 40.6504ZM43.0435 14.3472V7.17361C43.0435 6.53942 42.7915 5.93121 42.3431 5.48277C41.8946 5.03433 41.2864 4.7824 40.6522 4.7824H7.17391C6.5397 4.7824 5.93146 5.03433 5.48301 5.48277C5.03455 5.93121 4.78261 6.53942 4.78261 7.17361V33.4768C4.78261 34.111 5.03455 34.7192 5.48301 35.1677C5.93146 35.6161 6.5397 35.868 7.17391 35.868H11.9565V21.5208C11.9565 19.6183 12.7123 17.7936 14.0577 16.4483C15.4031 15.103 17.2278 14.3472 19.1304 14.3472H43.0435ZM40.0472 41.4658L33.4783 48.9766L26.9093 41.4682C26.6849 41.2114 26.4081 41.0055 26.0975 40.8645C25.787 40.7234 25.4498 40.6504 25.1087 40.6504H19.1304C18.4962 40.6504 17.888 40.3985 17.4395 39.9501C16.9911 39.5016 16.7391 38.8934 16.7391 38.2592V21.5208C16.7391 20.8866 16.9911 20.2784 17.4395 19.83C17.888 19.3815 18.4962 19.1296 19.1304 19.1296H47.8261C48.4603 19.1296 49.0685 19.3815 49.517 19.83C49.9655 20.2784 50.2174 20.8866 50.2174 21.5208V38.2592C50.2174 38.8934 49.9655 39.5016 49.517 39.9501C49.0685 40.3985 48.4603 40.6504 47.8261 40.6504H41.8478C41.5069 40.6502 41.1699 40.7228 40.8593 40.8634C40.5487 41.004 40.2718 41.2094 40.0472 41.4658Z"/>
</symbol>
<symbol viewBox="0 0 70 55" id="car" stroke="none" xmlns="http://www.w3.org/2000/svg">
	<path fill-rule="evenodd" clip-rule="evenodd" d="M18.3909 8.97147C18.554 8.2601 18.949 7.62577 19.5117 7.17169C20.0744 6.71761 20.7716 6.47051 21.49 6.47059H48.51C49.2284 6.47051 49.9256 6.71761 50.4883 7.17169C51.051 7.62577 51.446 8.2601 51.6091 8.97147L53.2636 16.1765H16.7364L18.3909 8.97147ZM3.18182 22.6471H6.36364C4.36545 25.3518 3.18182 28.71 3.18182 32.3529V35.5882C3.18182 39.8135 5.83864 43.4112 9.54545 44.7441V51.7647C9.54545 52.6228 9.88068 53.4457 10.4774 54.0524C11.0741 54.6591 11.8834 55 12.7273 55H15.9091C16.753 55 17.5623 54.6591 18.159 54.0524C18.7557 53.4457 19.0909 52.6228 19.0909 51.7647V45.2941H50.9091V51.7647C50.9091 52.6228 51.2443 53.4457 51.841 54.0524C52.4377 54.6591 53.247 55 54.0909 55H57.2727C58.1166 55 58.9259 54.6591 59.5226 54.0524C60.1193 53.4457 60.4545 52.6228 60.4545 51.7647V44.7441C62.3162 44.0744 63.9278 42.8342 65.0674 41.1945C66.2071 39.5548 66.8188 37.5961 66.8182 35.5882V32.3529C66.8233 28.852 65.7063 25.4447 63.6364 22.6471H66.8182C67.6621 22.6471 68.4714 22.3062 69.0681 21.6995C69.6648 21.0927 70 20.2698 70 19.4118C70 18.5537 69.6648 17.7308 69.0681 17.1241C68.4714 16.5173 67.6621 16.1765 66.8182 16.1765H63.6364C62.8456 16.1768 62.0833 16.4765 61.498 17.0172C60.9127 17.5579 60.5464 18.3008 60.4705 19.1012L60.3718 18.6774L57.8073 7.49941C57.3174 5.3659 56.1321 3.46365 54.4441 2.10205C52.7561 0.740445 50.6647 -0.000400753 48.51 1.62634e-07H21.49C19.3353 -0.000400753 17.2439 0.740445 15.5559 2.10205C13.8679 3.46365 12.6826 5.3659 12.1927 7.49941L9.62818 18.6774L9.53273 19.1012C9.45676 18.3003 9.09 17.5569 8.50404 17.0161C7.91808 16.4753 7.15497 16.176 6.36364 16.1765H3.18182C2.33795 16.1765 1.52864 16.5173 0.931933 17.1241C0.335226 17.7308 0 18.5537 0 19.4118C0 20.2698 0.335226 21.0927 0.931933 21.6995C1.52864 22.3062 2.33795 22.6471 3.18182 22.6471ZM19.0909 22.6471C16.5593 22.6471 14.1314 23.6696 12.3413 25.4898C10.5511 27.3101 9.54545 29.7788 9.54545 32.3529V35.5882C9.54545 36.4463 9.88068 37.2692 10.4774 37.8759C11.0741 38.4827 11.8834 38.8235 12.7273 38.8235H57.2727C58.1166 38.8235 58.9259 38.4827 59.5226 37.8759C60.1193 37.2692 60.4545 36.4463 60.4545 35.5882V32.3529C60.4545 29.7788 59.4489 27.3101 57.6587 25.4898C55.8686 23.6696 53.4407 22.6471 50.9091 22.6471H19.0909ZM15.9091 30.7353C15.9091 29.4482 16.4119 28.2138 17.307 27.3037C18.202 26.3936 19.416 25.8824 20.6818 25.8824C21.9476 25.8824 23.1616 26.3936 24.0566 27.3037C24.9517 28.2138 25.4545 29.4482 25.4545 30.7353C25.4545 32.0224 24.9517 33.2567 24.0566 34.1668C23.1616 35.0769 21.9476 35.5882 20.6818 35.5882C19.416 35.5882 18.202 35.0769 17.307 34.1668C16.4119 33.2567 15.9091 32.0224 15.9091 30.7353ZM49.3182 25.8824C48.0524 25.8824 46.8384 26.3936 45.9434 27.3037C45.0483 28.2138 44.5455 29.4482 44.5455 30.7353C44.5455 32.0224 45.0483 33.2567 45.9434 34.1668C46.8384 35.0769 48.0524 35.5882 49.3182 35.5882C50.584 35.5882 51.7979 35.0769 52.693 34.1668C53.5881 33.2567 54.0909 32.0224 54.0909 30.7353C54.0909 29.4482 53.5881 28.2138 52.693 27.3037C51.7979 26.3936 50.584 25.8824 49.3182 25.8824Z"/>
</symbol>
<symbol viewBox="0 0 55 55" id="clock" stroke="none" xmlns="http://www.w3.org/2000/svg">
	<path fill-rule="evenodd" clip-rule="evenodd" d="M5.5 27.5C5.5 21.6652 7.81785 16.0695 11.9437 11.9437C16.0695 7.81785 21.6652 5.5 27.5 5.5C33.3348 5.5 38.9305 7.81785 43.0564 11.9437C47.1822 16.0695 49.5 21.6652 49.5 27.5C49.5 33.3348 47.1822 38.9305 43.0564 43.0564C38.9305 47.1822 33.3348 49.5 27.5 49.5C21.6652 49.5 16.0695 47.1822 11.9437 43.0564C7.81785 38.9305 5.5 33.3348 5.5 27.5ZM27.5 0C12.3118 0 0 12.3118 0 27.5C0 42.6882 12.3118 55 27.5 55C42.6882 55 55 42.6882 55 27.5C55 12.3118 42.6882 0 27.5 0ZM30.25 11C30.25 10.2707 29.9603 9.57118 29.4445 9.05546C28.9288 8.53973 28.2293 8.25 27.5 8.25C26.7707 8.25 26.0712 8.53973 25.5555 9.05546C25.0397 9.57118 24.75 10.2707 24.75 11V27.5C24.7502 28.2293 25.04 28.9286 25.5557 29.4443L33.8058 37.6942C34.3244 38.1952 35.0191 38.4724 35.7401 38.4661C36.4611 38.4598 37.1509 38.1706 37.6608 37.6608C38.1706 37.1509 38.4598 36.4611 38.4661 35.7401C38.4724 35.0191 38.1952 34.3244 37.6942 33.8058L30.25 26.3615V11Z"/>
</symbol>
<symbol viewBox="0 0 64 55" id="photo-camera" stroke="none" xmlns="http://www.w3.org/2000/svg">
	<path fill-rule="evenodd" clip-rule="evenodd" d="M39.296 1.87708e-07C40.6392 0.000352193 41.9483 0.427983 43.0378 1.22232C44.1273 2.01666 44.9419 3.13743 45.3664 4.42588L47.104 9.70588H54.4C56.9461 9.70588 59.3879 10.7285 61.1882 12.5487C62.9886 14.3689 64 16.8376 64 19.4118V45.2941C64 47.8683 62.9886 50.337 61.1882 52.1572C59.3879 53.9774 56.9461 55 54.4 55H9.6C7.05392 55 4.61212 53.9774 2.81178 52.1572C1.01143 50.337 0 47.8683 0 45.2941V19.4118C0 16.8376 1.01143 14.3689 2.81178 12.5487C4.61212 10.7285 7.05392 9.70588 9.6 9.70588H16.896L18.6336 4.42588C19.0582 3.1369 19.8734 2.01576 20.9635 1.22137C22.0536 0.426989 23.3634 -0.000326963 24.7072 1.87708e-07H39.2928H39.296ZM39.296 6.47059H24.704L22.9664 11.7506C22.5418 13.0396 21.7266 14.1607 20.6365 14.9551C19.5464 15.7495 18.2366 16.1768 16.8928 16.1765H9.6C8.75131 16.1765 7.93738 16.5173 7.33726 17.1241C6.73714 17.7308 6.4 18.5537 6.4 19.4118V45.2941C6.4 46.1522 6.73714 46.9751 7.33726 47.5818C7.93738 48.1886 8.75131 48.5294 9.6 48.5294H54.4C55.2487 48.5294 56.0626 48.1886 56.6627 47.5818C57.2629 46.9751 57.6 46.1522 57.6 45.2941V19.4118C57.6 18.5537 57.2629 17.7308 56.6627 17.1241C56.0626 16.5173 55.2487 16.1765 54.4 16.1765H47.104C45.7608 16.1761 44.4517 15.7485 43.3622 14.9542C42.2727 14.1598 41.4581 13.039 41.0336 11.7506L39.296 6.47059ZM24 30.7353C24 28.5902 24.8429 26.5329 26.3431 25.016C27.8434 23.4992 29.8783 22.6471 32 22.6471C34.1217 22.6471 36.1566 23.4992 37.6569 25.016C39.1571 26.5329 40 28.5902 40 30.7353C40 32.8804 39.1571 34.9377 37.6569 36.4545C36.1566 37.9714 34.1217 38.8235 32 38.8235C29.8783 38.8235 27.8434 37.9714 26.3431 36.4545C24.8429 34.9377 24 32.8804 24 30.7353ZM32 16.1765C28.1809 16.1765 24.5182 17.7103 21.8177 20.4407C19.1171 23.171 17.6 26.8741 17.6 30.7353C17.6 34.5965 19.1171 38.2996 21.8177 41.0299C24.5182 43.7602 28.1809 45.2941 32 45.2941C35.8191 45.2941 39.4818 43.7602 42.1823 41.0299C44.8829 38.2996 46.4 34.5965 46.4 30.7353C46.4 26.8741 44.8829 23.171 42.1823 20.4407C39.4818 17.7103 35.8191 16.1765 32 16.1765Z"/>
</symbol>
<symbol viewBox="0 0 47 55" id="pointer" stroke="none" xmlns="http://www.w3.org/2000/svg">
	<path fill-rule="evenodd" clip-rule="evenodd" d="M14.3958 6.14872C14.0751 6.63949 13.8235 7.46872 13.8235 8.46154V33.8462C13.8235 34.5942 13.5322 35.3116 13.0138 35.8406C12.4953 36.3695 11.7921 36.6667 11.0588 36.6667C10.3256 36.6667 9.62236 36.3695 9.10388 35.8406C8.5854 35.3116 8.29412 34.5942 8.29412 33.8462V25.3846C8.29412 24.3918 8.04529 23.5626 7.72182 23.0718C7.45641 22.6628 7.22418 22.5641 6.91176 22.5641C6.60212 22.5641 6.36712 22.6628 6.10171 23.0718C5.781 23.5626 5.52941 24.3918 5.52941 25.3846V36.6667C5.52941 39.5803 7.46471 42.7026 11.2109 45.2495C14.8935 47.7569 19.8893 49.359 24.8824 49.359C35.0233 49.359 41.4706 43.0156 41.4706 36.6667V25.3846C41.4706 24.3918 41.2218 23.5626 40.8983 23.0718C40.6329 22.6628 40.4006 22.5641 40.0882 22.5641C39.7786 22.5641 39.5436 22.6628 39.2782 23.0718C38.9575 23.5626 38.7059 24.3918 38.7059 25.3846C38.7059 26.1327 38.4146 26.8501 37.8961 27.379C37.3776 27.908 36.6744 28.2051 35.9412 28.2051C35.2079 28.2051 34.5047 27.908 33.9862 27.379C33.4678 26.8501 33.1765 26.1327 33.1765 25.3846V22.5641C33.1765 21.5713 32.9276 20.7421 32.6042 20.2513C32.3388 19.8423 32.1065 19.7436 31.7941 19.7436C31.4845 19.7436 31.2495 19.8423 30.9841 20.2513C30.6634 20.7421 30.4118 21.5713 30.4118 22.5641V23.9744C30.4118 24.7224 30.1205 25.4398 29.602 25.9688C29.0835 26.4977 28.3803 26.7949 27.6471 26.7949C26.9138 26.7949 26.2106 26.4977 25.6921 25.9688C25.1736 25.4398 24.8824 24.7224 24.8824 23.9744V21.1538C24.8824 20.161 24.6335 19.3318 24.3101 18.841C24.0446 18.4321 23.8124 18.3333 23.5 18.3333C23.1904 18.3333 22.9554 18.4321 22.6899 18.841C22.3692 19.3318 22.1176 20.161 22.1176 21.1538V22.5641C22.1176 23.3121 21.8264 24.0296 21.3079 24.5585C20.7894 25.0875 20.0862 25.3846 19.3529 25.3846C18.6197 25.3846 17.9165 25.0875 17.398 24.5585C16.8795 24.0296 16.5882 23.3121 16.5882 22.5641V8.46154C16.5882 7.46872 16.3394 6.63949 16.0159 6.14872C15.7505 5.73974 15.5183 5.64103 15.2059 5.64103C14.8962 5.64103 14.6612 5.73974 14.3958 6.14872ZM22.1176 12.839V8.46154C22.1176 6.63385 21.6753 4.64256 20.6164 3.01795C19.4995 1.31154 17.6582 0 15.2059 0C12.7508 0 10.9123 1.31154 9.79535 3.01795C8.73371 4.64256 8.29412 6.63385 8.29412 8.46154V17.0697C7.83969 16.9712 7.37633 16.9221 6.91176 16.9231C4.45671 16.9231 2.61818 18.2346 1.50124 19.941C0.439588 21.5656 0 23.5569 0 25.3846V36.6667C0 42.2146 3.59412 46.8487 8.14206 49.9428C12.7508 53.0764 18.8166 55 24.8824 55C36.8591 55 47 47.2408 47 36.6667V25.3846C47 23.5569 46.5576 21.5656 45.4988 19.941C44.3818 18.2346 42.5405 16.9231 40.0882 16.9231C39.1732 16.9169 38.2677 17.1132 37.4341 17.4985C37.361 17.3704 37.2845 17.2443 37.2047 17.1205C36.0877 15.4141 34.2464 14.1026 31.7941 14.1026C30.4975 14.1026 29.3722 14.4692 28.4378 15.0615C27.841 14.3148 27.0875 13.7142 26.2329 13.3042C25.3783 12.8941 24.4444 12.685 23.5 12.6923C23.0162 12.6923 22.5545 12.7431 22.1176 12.839Z"/>
</symbol>
</svg>