<svg width="70" height="55" viewBox="0 0 70 55" fill="none" xmlns="http://www.w3.org/2000/svg">
<path fill-rule="evenodd" clip-rule="evenodd" d="M18.3909 8.97147C18.554 8.2601 18.949 7.62577 19.5117 7.17169C20.0744 6.71761 20.7716 6.47051 21.49 6.47059H48.51C49.2284 6.47051 49.9256 6.71761 50.4883 7.17169C51.051 7.62577 51.446 8.2601 51.6091 8.97147L53.2636 16.1765H16.7364L18.3909 8.97147ZM3.18182 22.6471H6.36364C4.36545 25.3518 3.18182 28.71 3.18182 32.3529V35.5882C3.18182 39.8135 5.83864 43.4112 9.54545 44.7441V51.7647C9.54545 52.6228 9.88068 53.4457 10.4774 54.0524C11.0741 54.6591 11.8834 55 12.7273 55H15.9091C16.753 55 17.5623 54.6591 18.159 54.0524C18.7557 53.4457 19.0909 52.6228 19.0909 51.7647V45.2941H50.9091V51.7647C50.9091 52.6228 51.2443 53.4457 51.841 54.0524C52.4377 54.6591 53.247 55 54.0909 55H57.2727C58.1166 55 58.9259 54.6591 59.5226 54.0524C60.1193 53.4457 60.4545 52.6228 60.4545 51.7647V44.7441C62.3162 44.0744 63.9278 42.8342 65.0674 41.1945C66.2071 39.5548 66.8188 37.5961 66.8182 35.5882V32.3529C66.8233 28.852 65.7063 25.4447 63.6364 22.6471H66.8182C67.6621 22.6471 68.4714 22.3062 69.0681 21.6995C69.6648 21.0927 70 20.2698 70 19.4118C70 18.5537 69.6648 17.7308 69.0681 17.1241C68.4714 16.5173 67.6621 16.1765 66.8182 16.1765H63.6364C62.8456 16.1768 62.0833 16.4765 61.498 17.0172C60.9127 17.5579 60.5464 18.3008 60.4705 19.1012L60.3718 18.6774L57.8073 7.49941C57.3174 5.3659 56.1321 3.46365 54.4441 2.10205C52.7561 0.740445 50.6647 -0.000400753 48.51 1.62634e-07H21.49C19.3353 -0.000400753 17.2439 0.740445 15.5559 2.10205C13.8679 3.46365 12.6826 5.3659 12.1927 7.49941L9.62818 18.6774L9.53273 19.1012C9.45676 18.3003 9.09 17.5569 8.50404 17.0161C7.91808 16.4753 7.15497 16.176 6.36364 16.1765H3.18182C2.33795 16.1765 1.52864 16.5173 0.931933 17.1241C0.335226 17.7308 0 18.5537 0 19.4118C0 20.2698 0.335226 21.0927 0.931933 21.6995C1.52864 22.3062 2.33795 22.6471 3.18182 22.6471ZM19.0909 22.6471C16.5593 22.6471 14.1314 23.6696 12.3413 25.4898C10.5511 27.3101 9.54545 29.7788 9.54545 32.3529V35.5882C9.54545 36.4463 9.88068 37.2692 10.4774 37.8759C11.0741 38.4827 11.8834 38.8235 12.7273 38.8235H57.2727C58.1166 38.8235 58.9259 38.4827 59.5226 37.8759C60.1193 37.2692 60.4545 36.4463 60.4545 35.5882V32.3529C60.4545 29.7788 59.4489 27.3101 57.6587 25.4898C55.8686 23.6696 53.4407 22.6471 50.9091 22.6471H19.0909ZM15.9091 30.7353C15.9091 29.4482 16.4119 28.2138 17.307 27.3037C18.202 26.3936 19.416 25.8824 20.6818 25.8824C21.9476 25.8824 23.1616 26.3936 24.0566 27.3037C24.9517 28.2138 25.4545 29.4482 25.4545 30.7353C25.4545 32.0224 24.9517 33.2567 24.0566 34.1668C23.1616 35.0769 21.9476 35.5882 20.6818 35.5882C19.416 35.5882 18.202 35.0769 17.307 34.1668C16.4119 33.2567 15.9091 32.0224 15.9091 30.7353ZM49.3182 25.8824C48.0524 25.8824 46.8384 26.3936 45.9434 27.3037C45.0483 28.2138 44.5455 29.4482 44.5455 30.7353C44.5455 32.0224 45.0483 33.2567 45.9434 34.1668C46.8384 35.0769 48.0524 35.5882 49.3182 35.5882C50.584 35.5882 51.7979 35.0769 52.693 34.1668C53.5881 33.2567 54.0909 32.0224 54.0909 30.7353C54.0909 29.4482 53.5881 28.2138 52.693 27.3037C51.7979 26.3936 50.584 25.8824 49.3182 25.8824Z" fill="#EFEFEF"/>
</svg>
