<svg width="56" height="55" viewBox="0 0 56 55" fill="none" xmlns="http://www.w3.org/2000/svg">
<path fill-rule="evenodd" clip-rule="evenodd" d="M5.37109 27.5C5.37109 24.5453 5.95307 21.6194 7.0838 18.8896C8.21453 16.1598 9.87187 13.6794 11.9612 11.5901C14.0505 9.50078 16.5309 7.84344 19.2607 6.71271C21.9905 5.58198 24.9164 5 27.8711 5C30.8258 5 33.7516 5.58198 36.4815 6.71271C39.2113 7.84344 41.6917 9.50078 43.781 11.5901C45.8703 13.6794 47.5277 16.1598 48.6584 18.8896C49.7891 21.6194 50.3711 24.5453 50.3711 27.5C50.3711 33.4674 48.0006 39.1903 43.781 43.4099C39.5614 47.6295 33.8385 50 27.8711 50C21.9037 50 16.1808 47.6295 11.9612 43.4099C7.74162 39.1903 5.37109 33.4674 5.37109 27.5ZM27.8711 0C12.6836 0 0.371094 12.3125 0.371094 27.5C0.371094 42.6875 12.6836 55 27.8711 55C43.0586 55 55.3711 42.6875 55.3711 27.5C55.3711 12.3125 43.0586 0 27.8711 0ZM39.8711 19C40.0681 18.7374 40.2114 18.4385 40.2929 18.1205C40.3744 17.8024 40.3924 17.4715 40.346 17.1464C40.2995 16.8214 40.1895 16.5088 40.0223 16.2263C39.855 15.9438 39.6337 15.697 39.3711 15.5C39.1085 15.303 38.8096 15.1597 38.4915 15.0782C38.1735 14.9967 37.8425 14.9787 37.5175 15.0251C37.1925 15.0716 36.8799 15.1815 36.5974 15.3488C36.3149 15.5161 36.0681 15.7374 35.8711 16L22.6011 33.695L17.1386 28.2325C16.6671 27.7771 16.0356 27.5251 15.3801 27.5308C14.7246 27.5365 14.0976 27.7994 13.634 28.263C13.1705 28.7265 12.9076 29.3535 12.9019 30.009C12.8962 30.6645 13.1482 31.296 13.6036 31.7675L21.1036 39.2675C21.3568 39.5207 21.6616 39.7166 21.9971 39.8419C22.3326 39.9671 22.6911 40.0188 23.0484 39.9934C23.4056 39.968 23.7532 39.8662 24.0677 39.6948C24.3822 39.5234 24.6562 39.2865 24.8711 39L39.8711 19Z" fill="#EFEFEF"/>
</svg>
