<svg width="55" height="55" viewBox="0 0 55 55" fill="none" xmlns="http://www.w3.org/2000/svg">
<path fill-rule="evenodd" clip-rule="evenodd" d="M5.5 27.5C5.5 21.6652 7.81785 16.0695 11.9437 11.9437C16.0695 7.81785 21.6652 5.5 27.5 5.5C33.3348 5.5 38.9305 7.81785 43.0564 11.9437C47.1822 16.0695 49.5 21.6652 49.5 27.5C49.5 33.3348 47.1822 38.9305 43.0564 43.0564C38.9305 47.1822 33.3348 49.5 27.5 49.5C21.6652 49.5 16.0695 47.1822 11.9437 43.0564C7.81785 38.9305 5.5 33.3348 5.5 27.5ZM27.5 0C12.3118 0 0 12.3118 0 27.5C0 42.6882 12.3118 55 27.5 55C42.6882 55 55 42.6882 55 27.5C55 12.3118 42.6882 0 27.5 0ZM30.25 11C30.25 10.2707 29.9603 9.57118 29.4445 9.05546C28.9288 8.53973 28.2293 8.25 27.5 8.25C26.7707 8.25 26.0712 8.53973 25.5555 9.05546C25.0397 9.57118 24.75 10.2707 24.75 11V27.5C24.7502 28.2293 25.04 28.9286 25.5557 29.4443L33.8058 37.6942C34.3244 38.1952 35.0191 38.4724 35.7401 38.4661C36.4611 38.4598 37.1509 38.1706 37.6608 37.6608C38.1706 37.1509 38.4598 36.4611 38.4661 35.7401C38.4724 35.0191 38.1952 34.3244 37.6942 33.8058L30.25 26.3615V11Z" fill="#EFEFEF"/>
</svg>
