<svg width="46" height="55" viewBox="0 0 46 55" fill="none" xmlns="http://www.w3.org/2000/svg">
<path fill-rule="evenodd" clip-rule="evenodd" d="M15.9454 0.7325C16.4141 0.263627 17.0499 0.000141594 17.7129 0H37.7129C39.702 0 41.6097 0.790176 43.0162 2.1967C44.4227 3.60322 45.2129 5.51088 45.2129 7.5V47.5C45.2129 49.4891 44.4227 51.3968 43.0162 52.8033C41.6097 54.2098 39.702 55 37.7129 55H7.71289C5.72377 55 3.81611 54.2098 2.40959 52.8033C1.00307 51.3968 0.212891 49.4891 0.212891 47.5V17.5C0.213032 16.837 0.476517 16.2012 0.945391 15.7325L15.9454 0.7325ZM37.7129 5H20.2129V17.5C20.2129 18.163 19.9495 18.7989 19.4807 19.2678C19.0118 19.7366 18.3759 20 17.7129 20H5.21289V47.5C5.21289 48.163 5.47628 48.7989 5.94512 49.2678C6.41397 49.7366 7.04985 50 7.71289 50H37.7129C38.3759 50 39.0118 49.7366 39.4807 49.2678C39.9495 48.7989 40.2129 48.163 40.2129 47.5V7.5C40.2129 6.83696 39.9495 6.20107 39.4807 5.73223C39.0118 5.26339 38.3759 5 37.7129 5ZM8.74789 15H15.2129V8.535L8.74789 15ZM10.2129 30C10.2129 29.337 10.4763 28.7011 10.9451 28.2322C11.414 27.7634 12.0498 27.5 12.7129 27.5H32.7129C33.3759 27.5 34.0118 27.7634 34.4807 28.2322C34.9495 28.7011 35.2129 29.337 35.2129 30C35.2129 30.663 34.9495 31.2989 34.4807 31.7678C34.0118 32.2366 33.3759 32.5 32.7129 32.5H12.7129C12.0498 32.5 11.414 32.2366 10.9451 31.7678C10.4763 31.2989 10.2129 30.663 10.2129 30ZM10.2129 40C10.2129 39.337 10.4763 38.7011 10.9451 38.2322C11.414 37.7634 12.0498 37.5 12.7129 37.5H32.7129C33.3759 37.5 34.0118 37.7634 34.4807 38.2322C34.9495 38.7011 35.2129 39.337 35.2129 40C35.2129 40.663 34.9495 41.2989 34.4807 41.7678C34.0118 42.2366 33.3759 42.5 32.7129 42.5H12.7129C12.0498 42.5 11.414 42.2366 10.9451 41.7678C10.4763 41.2989 10.2129 40.663 10.2129 40Z" fill="#EFEFEF"/>
</svg>
