<svg width="55" height="55" viewBox="0 0 55 55" fill="none" xmlns="http://www.w3.org/2000/svg">
<path fill-rule="evenodd" clip-rule="evenodd" d="M12.363 40.6504H7.17391C5.27127 40.6504 3.44656 39.8947 2.10119 38.5493C0.755821 37.204 0 35.3794 0 33.4768V7.17361C0 5.27105 0.755821 3.44641 2.10119 2.1011C3.44656 0.755789 5.27127 0 7.17391 0H40.6522C42.5548 0 44.3795 0.755789 45.7249 2.1011C47.0703 3.44641 47.8261 5.27105 47.8261 7.17361V14.3472C49.7287 14.3472 51.5534 15.103 52.8988 16.4483C54.2442 17.7936 55 19.6183 55 21.5208V38.2592C55 40.1618 54.2442 41.9864 52.8988 43.3317C51.5534 44.6771 49.7287 45.4328 47.8261 45.4328H42.9335L35.2789 54.1823C35.0545 54.4391 34.7777 54.6449 34.4671 54.786C34.1565 54.927 33.8194 55 33.4783 55C33.1372 55 32.8 54.927 32.4894 54.786C32.1789 54.6449 31.9021 54.4391 31.6776 54.1823L24.0254 45.4328H19.1304C17.6463 45.4333 16.1986 44.9736 14.9867 44.1171C13.7747 43.2606 12.8581 42.0495 12.363 40.6504ZM43.0435 14.3472V7.17361C43.0435 6.53942 42.7915 5.93121 42.3431 5.48277C41.8946 5.03433 41.2864 4.7824 40.6522 4.7824H7.17391C6.5397 4.7824 5.93146 5.03433 5.48301 5.48277C5.03455 5.93121 4.78261 6.53942 4.78261 7.17361V33.4768C4.78261 34.111 5.03455 34.7192 5.48301 35.1677C5.93146 35.6161 6.5397 35.868 7.17391 35.868H11.9565V21.5208C11.9565 19.6183 12.7123 17.7936 14.0577 16.4483C15.4031 15.103 17.2278 14.3472 19.1304 14.3472H43.0435ZM40.0472 41.4658L33.4783 48.9766L26.9093 41.4682C26.6849 41.2114 26.4081 41.0055 26.0975 40.8645C25.787 40.7234 25.4498 40.6504 25.1087 40.6504H19.1304C18.4962 40.6504 17.888 40.3985 17.4395 39.9501C16.9911 39.5016 16.7391 38.8934 16.7391 38.2592V21.5208C16.7391 20.8866 16.9911 20.2784 17.4395 19.83C17.888 19.3815 18.4962 19.1296 19.1304 19.1296H47.8261C48.4603 19.1296 49.0685 19.3815 49.517 19.83C49.9655 20.2784 50.2174 20.8866 50.2174 21.5208V38.2592C50.2174 38.8934 49.9655 39.5016 49.517 39.9501C49.0685 40.3985 48.4603 40.6504 47.8261 40.6504H41.8478C41.5069 40.6502 41.1699 40.7228 40.8593 40.8634C40.5487 41.004 40.2718 41.2094 40.0472 41.4658Z" fill="#EFEFEF"/>
</svg>
