<svg width="64" height="55" viewBox="0 0 64 55" fill="none" xmlns="http://www.w3.org/2000/svg">
<path fill-rule="evenodd" clip-rule="evenodd" d="M39.296 1.87708e-07C40.6392 0.000352193 41.9483 0.427983 43.0378 1.22232C44.1273 2.01666 44.9419 3.13743 45.3664 4.42588L47.104 9.70588H54.4C56.9461 9.70588 59.3879 10.7285 61.1882 12.5487C62.9886 14.3689 64 16.8376 64 19.4118V45.2941C64 47.8683 62.9886 50.337 61.1882 52.1572C59.3879 53.9774 56.9461 55 54.4 55H9.6C7.05392 55 4.61212 53.9774 2.81178 52.1572C1.01143 50.337 0 47.8683 0 45.2941V19.4118C0 16.8376 1.01143 14.3689 2.81178 12.5487C4.61212 10.7285 7.05392 9.70588 9.6 9.70588H16.896L18.6336 4.42588C19.0582 3.1369 19.8734 2.01576 20.9635 1.22137C22.0536 0.426989 23.3634 -0.000326963 24.7072 1.87708e-07H39.2928H39.296ZM39.296 6.47059H24.704L22.9664 11.7506C22.5418 13.0396 21.7266 14.1607 20.6365 14.9551C19.5464 15.7495 18.2366 16.1768 16.8928 16.1765H9.6C8.75131 16.1765 7.93738 16.5173 7.33726 17.1241C6.73714 17.7308 6.4 18.5537 6.4 19.4118V45.2941C6.4 46.1522 6.73714 46.9751 7.33726 47.5818C7.93738 48.1886 8.75131 48.5294 9.6 48.5294H54.4C55.2487 48.5294 56.0626 48.1886 56.6627 47.5818C57.2629 46.9751 57.6 46.1522 57.6 45.2941V19.4118C57.6 18.5537 57.2629 17.7308 56.6627 17.1241C56.0626 16.5173 55.2487 16.1765 54.4 16.1765H47.104C45.7608 16.1761 44.4517 15.7485 43.3622 14.9542C42.2727 14.1598 41.4581 13.039 41.0336 11.7506L39.296 6.47059ZM24 30.7353C24 28.5902 24.8429 26.5329 26.3431 25.016C27.8434 23.4992 29.8783 22.6471 32 22.6471C34.1217 22.6471 36.1566 23.4992 37.6569 25.016C39.1571 26.5329 40 28.5902 40 30.7353C40 32.8804 39.1571 34.9377 37.6569 36.4545C36.1566 37.9714 34.1217 38.8235 32 38.8235C29.8783 38.8235 27.8434 37.9714 26.3431 36.4545C24.8429 34.9377 24 32.8804 24 30.7353ZM32 16.1765C28.1809 16.1765 24.5182 17.7103 21.8177 20.4407C19.1171 23.171 17.6 26.8741 17.6 30.7353C17.6 34.5965 19.1171 38.2996 21.8177 41.0299C24.5182 43.7602 28.1809 45.2941 32 45.2941C35.8191 45.2941 39.4818 43.7602 42.1823 41.0299C44.8829 38.2996 46.4 34.5965 46.4 30.7353C46.4 26.8741 44.8829 23.171 42.1823 20.4407C39.4818 17.7103 35.8191 16.1765 32 16.1765Z" fill="#EFEFEF"/>
</svg>
