<svg width="47" height="55" viewBox="0 0 47 55" fill="none" xmlns="http://www.w3.org/2000/svg">
<path fill-rule="evenodd" clip-rule="evenodd" d="M14.3958 6.14872C14.0751 6.63949 13.8235 7.46872 13.8235 8.46154V33.8462C13.8235 34.5942 13.5322 35.3116 13.0138 35.8406C12.4953 36.3695 11.7921 36.6667 11.0588 36.6667C10.3256 36.6667 9.62236 36.3695 9.10388 35.8406C8.5854 35.3116 8.29412 34.5942 8.29412 33.8462V25.3846C8.29412 24.3918 8.04529 23.5626 7.72182 23.0718C7.45641 22.6628 7.22418 22.5641 6.91176 22.5641C6.60212 22.5641 6.36712 22.6628 6.10171 23.0718C5.781 23.5626 5.52941 24.3918 5.52941 25.3846V36.6667C5.52941 39.5803 7.46471 42.7026 11.2109 45.2495C14.8935 47.7569 19.8893 49.359 24.8824 49.359C35.0233 49.359 41.4706 43.0156 41.4706 36.6667V25.3846C41.4706 24.3918 41.2218 23.5626 40.8983 23.0718C40.6329 22.6628 40.4006 22.5641 40.0882 22.5641C39.7786 22.5641 39.5436 22.6628 39.2782 23.0718C38.9575 23.5626 38.7059 24.3918 38.7059 25.3846C38.7059 26.1327 38.4146 26.8501 37.8961 27.379C37.3776 27.908 36.6744 28.2051 35.9412 28.2051C35.2079 28.2051 34.5047 27.908 33.9862 27.379C33.4678 26.8501 33.1765 26.1327 33.1765 25.3846V22.5641C33.1765 21.5713 32.9276 20.7421 32.6042 20.2513C32.3388 19.8423 32.1065 19.7436 31.7941 19.7436C31.4845 19.7436 31.2495 19.8423 30.9841 20.2513C30.6634 20.7421 30.4118 21.5713 30.4118 22.5641V23.9744C30.4118 24.7224 30.1205 25.4398 29.602 25.9688C29.0835 26.4977 28.3803 26.7949 27.6471 26.7949C26.9138 26.7949 26.2106 26.4977 25.6921 25.9688C25.1736 25.4398 24.8824 24.7224 24.8824 23.9744V21.1538C24.8824 20.161 24.6335 19.3318 24.3101 18.841C24.0446 18.4321 23.8124 18.3333 23.5 18.3333C23.1904 18.3333 22.9554 18.4321 22.6899 18.841C22.3692 19.3318 22.1176 20.161 22.1176 21.1538V22.5641C22.1176 23.3121 21.8264 24.0296 21.3079 24.5585C20.7894 25.0875 20.0862 25.3846 19.3529 25.3846C18.6197 25.3846 17.9165 25.0875 17.398 24.5585C16.8795 24.0296 16.5882 23.3121 16.5882 22.5641V8.46154C16.5882 7.46872 16.3394 6.63949 16.0159 6.14872C15.7505 5.73974 15.5183 5.64103 15.2059 5.64103C14.8962 5.64103 14.6612 5.73974 14.3958 6.14872ZM22.1176 12.839V8.46154C22.1176 6.63385 21.6753 4.64256 20.6164 3.01795C19.4995 1.31154 17.6582 0 15.2059 0C12.7508 0 10.9123 1.31154 9.79535 3.01795C8.73371 4.64256 8.29412 6.63385 8.29412 8.46154V17.0697C7.83969 16.9712 7.37633 16.9221 6.91176 16.9231C4.45671 16.9231 2.61818 18.2346 1.50124 19.941C0.439588 21.5656 0 23.5569 0 25.3846V36.6667C0 42.2146 3.59412 46.8487 8.14206 49.9428C12.7508 53.0764 18.8166 55 24.8824 55C36.8591 55 47 47.2408 47 36.6667V25.3846C47 23.5569 46.5576 21.5656 45.4988 19.941C44.3818 18.2346 42.5405 16.9231 40.0882 16.9231C39.1732 16.9169 38.2677 17.1132 37.4341 17.4985C37.361 17.3704 37.2845 17.2443 37.2047 17.1205C36.0877 15.4141 34.2464 14.1026 31.7941 14.1026C30.4975 14.1026 29.3722 14.4692 28.4378 15.0615C27.841 14.3148 27.0875 13.7142 26.2329 13.3042C25.3783 12.8941 24.4444 12.685 23.5 12.6923C23.0162 12.6923 22.5545 12.7431 22.1176 12.839Z" fill="#EFEFEF"/>
</svg>
