<svg width="53" height="55" viewBox="0 0 53 55" fill="none" xmlns="http://www.w3.org/2000/svg">
<path fill-rule="evenodd" clip-rule="evenodd" d="M21.0887 0C20.3712 0 19.683 0.289731 19.1756 0.805456C18.6682 1.32118 18.3831 2.02065 18.3831 2.75V7.1005C16.5172 7.86869 14.766 8.89796 13.1802 10.1585L9.47078 7.9805C8.84936 7.61584 8.11087 7.51702 7.41776 7.70578C6.72465 7.89453 6.1337 8.3554 5.7749 8.987L0.363645 18.513C0.00487299 19.1446 -0.0923526 19.8952 0.0933558 20.5997C0.279064 21.3042 0.732496 21.9048 1.35391 22.2695L5.06061 24.4447C4.78313 26.4718 4.78313 28.5282 5.06061 30.5553L1.35391 32.7277C1.04586 32.9083 0.775851 33.1489 0.559332 33.4356C0.342813 33.7223 0.184027 34.0496 0.0920553 34.3987C8.41315e-05 34.7479 -0.0232685 35.112 0.0233333 35.4703C0.0699351 35.8287 0.185577 36.1741 0.363645 36.487L5.7749 46.013C6.1337 46.6446 6.72465 47.1055 7.41776 47.2942C8.11087 47.483 8.84936 47.3842 9.47078 47.0195L13.1802 44.8415C14.7522 46.0928 16.5027 47.124 18.3831 47.8995V52.25C18.3831 52.9793 18.6682 53.6788 19.1756 54.1945C19.683 54.7103 20.3712 55 21.0887 55H31.9112C32.6288 55 33.317 54.7103 33.8244 54.1945C34.3318 53.6788 34.6169 52.9793 34.6169 52.25V47.8995C36.4827 47.1312 38.234 46.102 39.8198 44.8415L43.5292 47.0195C44.1506 47.3842 44.8891 47.483 45.5822 47.2942C46.2753 47.1055 46.8663 46.6446 47.2251 46.013L52.6363 36.487C52.9951 35.8554 53.0923 35.1048 52.9066 34.4003C52.7209 33.6958 52.2675 33.0952 51.6461 32.7305L47.9394 30.5553C48.2168 28.5282 48.2168 26.4718 47.9394 24.4447L51.6461 22.2722C51.9541 22.0917 52.2241 21.8511 52.4407 21.5644C52.6572 21.2777 52.816 20.9504 52.9079 20.6013C52.9999 20.2521 53.0233 19.888 52.9767 19.5297C52.9301 19.1713 52.8144 18.8259 52.6363 18.513L47.2251 8.987C46.8663 8.3554 46.2753 7.89453 45.5822 7.70578C44.8891 7.51702 44.1506 7.61584 43.5292 7.9805L39.8198 10.1585C38.234 8.89799 36.4828 7.86872 34.6169 7.1005V2.75C34.6169 2.02065 34.3318 1.32118 33.8244 0.805456C33.317 0.289731 32.6288 0 31.9112 0H21.0887ZM23.7944 9.0475V5.5H29.2056V9.0475C29.2059 9.63982 29.3944 10.2162 29.743 10.6909C30.0915 11.1656 30.5816 11.5132 31.1401 11.682C33.5762 12.4214 35.8071 13.7327 37.6526 15.51C38.076 15.9177 38.6176 16.1755 39.1968 16.2449C39.7761 16.3142 40.3618 16.1915 40.8669 15.895L43.8918 14.1185L46.5974 18.8815L43.5752 20.6552C43.0709 20.9512 42.674 21.4045 42.4434 21.948C42.2128 22.4915 42.161 23.0961 42.2954 23.672C42.884 26.1889 42.884 28.8111 42.2954 31.328C42.161 31.9039 42.2128 32.5085 42.4434 33.052C42.674 33.5955 43.0709 34.0488 43.5752 34.3447L46.5974 36.1185L43.8918 40.8815L40.8642 39.105C40.3594 38.8091 39.7742 38.6868 39.1956 38.7562C38.6169 38.8255 38.0758 39.0829 37.6526 39.49C35.8072 41.2674 33.5763 42.5788 31.1401 43.318C30.5816 43.4868 30.0915 43.8344 29.743 44.3091C29.3944 44.7838 29.2059 45.3602 29.2056 45.9525V49.5H23.7944V45.9525C23.7941 45.3602 23.6056 44.7838 23.257 44.3091C22.9085 43.8344 22.4184 43.4868 21.8598 43.318C19.4238 42.5787 17.1929 41.2674 15.3474 39.49C14.924 39.0823 14.3824 38.8245 13.8031 38.7551C13.2239 38.6858 12.6381 38.8085 12.1331 39.105L9.10823 40.8815L6.4026 36.1185L9.42479 34.3447C9.9291 34.0488 10.326 33.5955 10.5566 33.052C10.7871 32.5085 10.839 31.9039 10.7046 31.328C10.116 28.8111 10.116 26.1889 10.7046 23.672C10.839 23.0961 10.7871 22.4915 10.5566 21.948C10.326 21.4045 9.9291 20.9512 9.42479 20.6552L6.4026 18.8815L9.10823 14.1185L12.1331 15.895C12.6381 16.1915 13.2239 16.3142 13.8031 16.2449C14.3824 16.1755 14.924 15.9177 15.3474 15.51C17.1929 13.7327 19.4238 12.4214 21.8598 11.682C22.4184 11.5132 22.9085 11.1656 23.257 10.6909C23.6056 10.2162 23.7941 9.63982 23.7944 9.0475ZM21.0887 27.5C21.0887 26.0413 21.6589 24.6424 22.6737 23.6109C23.6885 22.5795 25.0648 22 26.5 22C27.9352 22 29.3115 22.5795 30.3263 23.6109C31.3411 24.6424 31.9112 26.0413 31.9112 27.5C31.9112 28.9587 31.3411 30.3576 30.3263 31.3891C29.3115 32.4205 27.9352 33 26.5 33C25.0648 33 23.6885 32.4205 22.6737 31.3891C21.6589 30.3576 21.0887 28.9587 21.0887 27.5ZM26.5 16.5C23.6297 16.5 20.8769 17.6589 18.8473 19.7218C16.8177 21.7847 15.6775 24.5826 15.6775 27.5C15.6775 30.4174 16.8177 33.2153 18.8473 35.2782C20.8769 37.3411 23.6297 38.5 26.5 38.5C29.3703 38.5 32.1231 37.3411 34.1527 35.2782C36.1823 33.2153 37.3225 30.4174 37.3225 27.5C37.3225 24.5826 36.1823 21.7847 34.1527 19.7218C32.1231 17.6589 29.3703 16.5 26.5 16.5Z" fill="#EFEFEF"/>
</svg>
