<svg width="344" height="46" viewBox="0 0 344 46" fill="#FBD691" xmlns="http://www.w3.org/2000/svg">
<path d="M25.0182 27.8654V0.884615H33.5429V45.1154H27.0567L8.52472 18.0714V45.1154H0V0.884615H6.4862L25.0182 27.8654Z" />
<path d="M50.089 26.8544V36.7747H68.3122V45.1154H41.5643V0.884615H68.0033V9.22528H50.089V18.6401H66.459V26.8544H50.089Z" />
<path d="M93.0384 45.1154H83.34L71.2324 0.884615H80.1896L88.4672 33.6786L97.4861 0.884615H104.775L113.856 33.6786L122.134 0.884615H131.091L118.983 45.1154H109.285L101.131 15.9231L93.0384 45.1154Z" />
<path d="M176.063 18.4506V0.884615H184.526V45.1154H176.063V26.7912H160.002V45.1154H151.477V0.884615H160.002V18.4506H176.063Z" />
<path d="M228.944 39.3654C224.578 43.7885 219.266 46 213.006 46C206.746 46 201.434 43.7885 197.069 39.3654C192.744 34.8581 190.582 29.4029 190.582 23C190.582 16.5549 192.744 11.1209 197.069 6.6978C201.434 2.2326 206.746 0 213.006 0C219.266 0 224.578 2.2326 228.944 6.6978C233.309 11.1209 235.492 16.5549 235.492 23C235.492 29.4451 233.309 34.9002 228.944 39.3654ZM203.061 33.4258C205.696 36.1218 209.012 37.4698 213.006 37.4698C217.001 37.4698 220.316 36.1218 222.952 33.4258C225.629 30.6877 226.967 27.2125 226.967 23C226.967 18.7875 225.629 15.3123 222.952 12.5742C220.275 9.83608 216.96 8.46703 213.006 8.46703C209.053 8.46703 205.738 9.83608 203.061 12.5742C200.384 15.3123 199.045 18.7875 199.045 23C199.045 27.2125 200.384 30.6877 203.061 33.4258Z" />
<path d="M257.304 46C252.486 46 248.533 44.6099 245.444 41.8297C242.355 39.0494 240.811 35.3214 240.811 30.6456V0.884615H249.274V29.9505C249.274 32.3095 249.933 34.163 251.251 35.511C252.61 36.8168 254.628 37.4698 257.304 37.4698C259.981 37.4698 261.979 36.8168 263.296 35.511C264.655 34.163 265.335 32.3095 265.335 29.9505V0.884615H273.86V30.6456C273.86 35.3214 272.315 39.0494 269.227 41.8297C266.138 44.6099 262.164 46 257.304 46Z" />
<path d="M296.303 46C292.061 46 288.479 45.0311 285.555 43.0934C282.631 41.1557 280.551 38.4808 279.316 35.0687L286.605 30.7088C288.293 35.2161 291.608 37.4698 296.55 37.4698C298.857 37.4698 300.586 37.0485 301.739 36.206C302.892 35.3636 303.469 34.2262 303.469 32.794C303.469 31.2353 302.789 30.0348 301.43 29.1923C300.071 28.3077 297.642 27.3599 294.141 26.3489C290.352 25.1694 287.367 23.8004 285.184 22.2418C282.466 20.1777 281.107 17.1447 281.107 13.1429C281.107 9.0989 282.487 5.9185 285.246 3.60165C288.005 1.20055 291.361 0 295.315 0C298.774 0 301.842 0.863553 304.519 2.59066C307.196 4.31777 309.276 6.76099 310.758 9.92033L303.592 14.1538C301.863 10.3626 299.104 8.46703 295.315 8.46703C293.585 8.46703 292.206 8.88828 291.176 9.73077C290.146 10.5311 289.632 11.5842 289.632 12.8901C289.632 14.2802 290.188 15.4176 291.3 16.3022C292.535 17.1868 294.718 18.1136 297.848 19.0824L300.813 20.0934C301.348 20.2619 302.275 20.62 303.592 21.1676C304.828 21.631 305.734 22.0733 306.31 22.4945C308.328 23.7582 309.687 25.0641 310.388 26.4121C311.458 28.1813 311.994 30.2665 311.994 32.6676C311.994 36.7537 310.532 39.9973 307.608 42.3983C304.684 44.7994 300.916 46 296.303 46Z" />
<path d="M325.777 26.8544V36.7747H344V45.1154H317.252V0.884615H343.691V9.22528H325.777V18.6401H342.147V26.8544H325.777Z" />
</svg>
